<?xml version="1.0" encoding="UTF-8"?>
<svg id="Calque_1" xmlns="http://www.w3.org/2000/svg" version="1.1" xmlns:xodm="http://www.corel.com/coreldraw/odm/2003" viewBox="0 0 32 32">
  <!-- Generator: Adobe Illustrator 29.5.1, SVG Export Plug-In . SVG Version: 2.1.0 Build 141)  -->
  <defs>
    <style>
      .st0 {
        fill: #fff;
      }
    </style>
  </defs>
  <g id="Capa_x5F_1">
    <path class="st0" d="M32.04,15.97c0,8.85-7.18,16.03-16.02,16.03S0,24.82,0,15.97,7.17-.06,16.02-.06s16.02,7.18,16.02,16.03ZM17.25,22.97c-1.43-.28-2.28-1.11-4.45-4.33q-.72-1.08-1.42-1.13c-1.03-.07-.95-.25-.92,2.02.04,2.58.01,2.52,1.5,2.77.39.06.42.09.42.32q0,.26-2.62.28c-2.46.02-2.62.01-2.67-.14-.1-.29.05-.43.59-.53.61-.11.93-.36,1.01-.78.04-.16.05-2.32.03-4.8-.03-5.21.03-4.9-.93-5.11-.6-.13-.79-.27-.71-.51.06-.16.19-.17,2.92-.22,4.06-.08,4.82.05,5.9,1.01,1.13,1.01,1.29,2.55.39,3.84-.4.58-1.2,1.2-1.82,1.43-.29.11-.53.23-.53.27,0,.12.92,1.43,1.49,2.13,1.52,1.85,2.34,2.57,3.19,2.79.53.14.68.29.53.55-.16.27-.96.33-1.9.14ZM13.42,16.34c2-.82,2.15-3.57.25-4.38-.49-.21-.62-.22-1.85-.22q-1.33,0-1.35,2.31c-.02,1.27-.01,2.37.02,2.43.09.21,2.34.1,2.93-.14ZM20.39,13.49c-1.55-.29-2.06-1.24-1.98-3.68.04-1.35.15-1.72.67-2.28.92-.99,3.2-.9,4.04.16.36.45.33.59-.17.74q-.39.13-.75-.23c-.85-.82-2.32-.52-2.58.54-.13.47-.12,2.46.01,2.91.35,1.27,2.46,1.27,2.82,0,.22-.81.17-.87-.8-.92q-.47-.02-.47-.41t1.12-.41c1.45-.03,1.43-.05,1.36,1.01-.09,1.33-.45,1.97-1.32,2.35-.57.24-1.35.33-1.95.22Z"/>
    <path class="st0" d="M17.25,22.97c-1.43-.28-2.28-1.11-4.45-4.33q-.72-1.08-1.42-1.13c-1.03-.07-.95-.25-.92,2.02.04,2.58.01,2.52,1.5,2.77.39.06.42.09.42.32q0,.26-2.62.28c-2.46.02-2.62.01-2.67-.14-.1-.29.05-.43.59-.53.61-.11.93-.36,1.01-.78.04-.16.05-2.32.03-4.8-.03-5.21.03-4.9-.93-5.11-.6-.13-.79-.27-.71-.51.06-.16.19-.17,2.92-.22,4.06-.08,4.82.05,5.9,1.01,1.13,1.01,1.29,2.55.39,3.84-.4.58-1.2,1.2-1.82,1.43-.29.11-.53.23-.53.27,0,.12.92,1.43,1.49,2.13,1.52,1.85,2.34,2.57,3.19,2.79.53.14.68.29.53.55-.16.27-.96.33-1.9.14ZM13.42,16.34c2-.82,2.15-3.57.25-4.38-.49-.21-.62-.22-1.85-.22q-1.33,0-1.35,2.31c-.02,1.27-.01,2.37.02,2.43.09.21,2.34.1,2.93-.14ZM20.39,13.49c-1.55-.29-2.06-1.24-1.98-3.68.04-1.35.15-1.72.67-2.28.92-.99,3.2-.9,4.04.16.36.45.33.59-.17.74q-.39.13-.75-.23c-.85-.82-2.32-.52-2.58.54-.13.47-.12,2.46.01,2.91.35,1.27,2.46,1.27,2.82,0,.22-.81.17-.87-.8-.92q-.47-.02-.47-.41t1.12-.41c1.45-.03,1.43-.05,1.36,1.01-.09,1.33-.45,1.97-1.32,2.35-.57.24-1.35.33-1.95.22Z"/>
  </g>
</svg>
