<?xml version="1.0" encoding="UTF-8"?>
<svg id="Calque_1" xmlns="http://www.w3.org/2000/svg" version="1.1" xmlns:xodm="http://www.corel.com/coreldraw/odm/2003" viewBox="0 0 32 32">
  <!-- Generator: Adobe Illustrator 29.5.1, SVG Export Plug-In . SVG Version: 2.1.0 Build 141)  -->
  <defs>
    <style>
      .st0 {
        fill: #fff;
      }
    </style>
  </defs>
  <g id="Capa_x5F_1">
    <path class="st0" d="M20.99,6.84c.84,0,1.69.29,2.13.85.36.45.33.59-.17.74-.15.05-.24.08-.31.08-.13,0-.21-.08-.44-.31-.33-.32-.76-.47-1.17-.47-.64,0-1.25.36-1.41,1.01-.13.47-.12,2.46.01,2.91.17.64.79.95,1.41.95s1.23-.32,1.41-.95c.22-.81.17-.87-.8-.92q-.47-.02-.47-.41t1.12-.41c.23,0,.42,0,.58,0,.86,0,.84.13.78,1.02-.09,1.33-.45,1.97-1.32,2.35-.41.17-.92.27-1.4.27-.19,0-.38-.02-.55-.05-1.55-.29-2.06-1.24-1.98-3.68.04-1.35.15-1.72.67-2.28.43-.46,1.16-.69,1.91-.69M11.66,10.79c2.64,0,3.32.22,4.24,1.03,1.13,1.01,1.29,2.55.39,3.84-.4.58-1.2,1.2-1.82,1.43-.29.11-.53.23-.53.27,0,.12.92,1.43,1.49,2.13,1.52,1.85,2.34,2.57,3.19,2.79.53.14.68.29.53.55-.1.16-.43.25-.89.25-.3,0-.64-.04-1.01-.11-1.43-.28-2.28-1.11-4.45-4.33q-.72-1.08-1.42-1.13c-.22-.01-.39-.03-.52-.03-.48,0-.42.27-.4,2.05.04,2.58.01,2.52,1.5,2.77.39.06.42.09.42.32q0,.26-2.62.28c-.57,0-1.02,0-1.37,0-1.15,0-1.26-.03-1.3-.15-.1-.29.05-.43.59-.53.61-.11.93-.36,1.01-.78.04-.16.05-2.32.03-4.8-.03-5.21.03-4.9-.93-5.11-.6-.13-.79-.27-.71-.51.06-.16.19-.17,2.92-.22.63-.01,1.18-.02,1.66-.02M11.28,16.59c.73,0,1.77-.1,2.14-.25,2-.82,2.15-3.57.25-4.38-.49-.21-.62-.22-1.85-.22q-1.33,0-1.35,2.31c-.02,1.27-.01,2.37.02,2.43.03.08.36.11.79.11M20.99,2.84c-1.91,0-3.67.72-4.84,1.97-.68.73-1.09,1.46-1.34,2.19-.91-.16-1.93-.21-3.14-.21-.51,0-1.08,0-1.74.02-1.53.03-2.2.04-2.68.08-2.58.19-3.55,1.8-3.9,2.74l-.03.07-.02.07c-.38,1.15-.26,2.41.33,3.45.31.54.69.95,1.09,1.26,0,.41,0,.87,0,1.35v.85c.01,1.01.02,1.87.01,2.56-.44.34-.81.75-1.09,1.24-.63,1.07-.75,2.38-.33,3.59.95,2.84,3.74,2.84,5.08,2.84.36,0,.82,0,1.41,0,1.53-.01,2.16-.02,2.69-.07.73-.08,1.38-.3,1.94-.65.62.33,1.3.57,2.06.72.6.12,1.21.19,1.78.19,2.63,0,3.84-1.39,4.33-2.21.7-1.22.8-2.6.29-3.82-.36-.87-1.17-2-2.97-2.56-.08-.07-.22-.2-.43-.42.03-.05.07-.09.1-.14.11-.15.21-.31.3-.47.35.05.7.08,1.05.08,1.02,0,2.07-.21,2.95-.58h.02s.02-.02.02-.02c2.27-.99,3.52-2.92,3.71-5.75h0s0-.05,0-.05c.04-.55.1-1.53-.32-2.55.11-.94-.08-2.13-1.1-3.4-1.16-1.47-3.13-2.35-5.26-2.35h0Z"/>
    <path class="st0" d="M16.01,4.94c6.08,0,11.03,4.95,11.03,11.03s-4.95,11.03-11.03,11.03-11.03-4.95-11.03-11.03,4.95-11.03,11.03-11.03M16.01-.06C7.16-.06-.02,7.12-.02,15.97s7.18,16.03,16.03,16.03,16.03-7.18,16.03-16.03S24.86-.06,16.01-.06h0Z"/>
    <path class="st0" d="M12.16,3.38c-2.12,0-3.85.96-3.85,2.14s1.72,2.14,3.85,2.14,3.85-.96,3.85-2.14-1.72-2.14-3.85-2.14h0Z"/>
    <ellipse class="st0" cx="23.91" cy="19.86" rx="5.51" ry="6.33"/>
    <path class="st0" d="M15.01,24.73c-2.12,0-3.85.96-3.85,2.14s1.72,2.14,3.85,2.14,3.85-.96,3.85-2.14-1.72-2.14-3.85-2.14h0Z"/>
  </g>
</svg>