<?xml version="1.0" encoding="UTF-8"?>
<svg id="visual" xmlns="http://www.w3.org/2000/svg" version="1.1" viewBox="0 0 960 540">
  <!-- Generator: Adobe Illustrator 29.5.1, SVG Export Plug-In . SVG Version: 2.1.0 Build 141)  -->
  <defs>
    <style>
      .st0 {
        fill: #001d6f;
      }

      .st1 {
        fill: #015cb7;
      }

      .st2 {
        fill: #0f0a38;
      }
    </style>
  </defs>
  <rect class="st0" x="1.22" width="958.78" height="540"/>
  <path class="st1" d="M84.35,412.5v-1c.4.08.88-.07,1.3,0-.41.32-.79.78-1.3,1Z"/>
  <path class="st2" d="M960,207.21v2c-12.29-.7-24.87-.95-37.08-2.14-18.52-1.81-44.15-5.11-62.25-8.11-11.98-1.98-23.66-8.05-35.06-10.97-1.46-.37-4.72-1.54-5.68-.28,14.75,4.75,28.73,10.44,44.49,13.78,16.37,3.48,34.66,5.3,51.43,8.22,8.28,1.44,19.72,5.38,27,6.27,5.76.7,11.79-.66,17.15,1.23v2c-5.47-1.22-11.98-.49-17.15-1.23-7.79-1.12-15.59-4.08-23.63-5.48-22.12-3.86-46.12-6.2-67.29-11.8-10.34-2.74-19.7-7.34-30.47-9.47l42.18,16.78c13.64,2.54,27.82,3.4,41.56,5.7,18.71,3.14,35.93,9.01,54.79,11.51v3c-17.27-2.12-32.96-7.65-49.91-10.72-14.67-2.65-33.27-3.35-46.42-6.51-10.98-2.64-23.73-9.54-34.56-13.3-46.43-16.1-106.14-31.55-153-6.45-44.47,23.82,19.46,55.13,31.51,77.25,13.2,24.22-41.03,12.35-58.21,13.22l52.61,5.36c5.81-.63,9.64-2.64,11.4-6.32,12.86-26.87-58.71-50.66-39.46-79.93,15.55-23.65,78.87-21.66,109.77-15.33,25.65,5.25,40.12,13.7,61.62,22.52,23.85,9.79,44.2,9.93,70.15,14.92,15.28,2.94,30.06,6.95,44.5,11.27v4c-8.71-2.93-17.82-5.54-27.03-7.75-3.57-.86-47.56-10.58-47.59-7.75,26.19,3.72,51.19,10.06,74.61,18.5v4c-28.58-8.57-58.04-18.09-89.84-19.5,30.79,6,62.34,11.19,89.84,22.5v90c-20.91-17.42-73.48-30.11-95.67-7.34-3.51,3.6-18.95,27.89-20.05,31.83-.57,2.04.48,1.89,2.23.46,12.12-9.92,19.79-27.51,36.9-33.76,26.2-9.58,56.53-1.87,76.58,10.81v16c-15.35-12.15-33.74-22.66-59.77-19.76-19.62,2.18-28.23,22.68-39.2,32.25.57,1.27,3.33-1.1,3.84-1.48,9.63-7.18,14.66-15.6,28.89-20.02,24.46-7.6,47.91.08,66.24,11.01v19c-8.63-6.57-12.83-12.64-24.86-17.17-17.06-6.42-30.61-6.7-44.42,3.16-12.36,8.83-22.09,20.41-34.25,29.5,3.31-.45,6.87-3.34,9.19-4.96,13.27-9.31,19.51-19.97,41.99-21.42,22.32-1.44,37.86,7.32,52.36,16.89v52c-15.43-9.61-18.69-33.05-45.36-34.78-16.21-1.05-42.18,13.52-53.6,20.77l24.33-8.51c33.89-6.21,57.53,10.88,74.63,27.52v100H-.63l-.13-164.57c.45-2.34,3.15-.93,3.2-1.93-5.42-.82-2.49-4.49-3.05-7.5,2.2.94,22.82,3.12,22.84,1.5-7.27-2.11-14.88-2.99-22.86-2.49l.02-7c2.04.56,15.22,1.92,15.23.5-7.3-2.52-17.76.72-15.23-7.49,5.54.67,12.71.52,17.85,1.77,9.05,2.19,20.92,10.95,30.86,13.22-9-5.79-20.4-13.13-31.97-16.49-7.89-2.29-19.29-1.07-16.73-8.5,35.52,4.18,55.24,26.36,87.25,35.18,16.38,4.51,49.94,8.06,51.35-8.65,1.22-14.57-24.62-36.01-8.36-48.47,8.23-6.3,49.49-12.63,63.88-16.04,9.47-2.24,18.98-4.85,28.15-7.52-.93-1.21-4.28-.06-5.8.2-13.79,2.35-27.42,6.32-41.68,8.63-12.25,1.98-48.63,4.47-55.55,9.01-7.94,5.22-7.31,16.21-6.59,23.15,1.72,16.6,20.39,42.15-26.21,34.22-30.87-5.25-44.81-23.64-69.71-31.21-6.69-2.03-19.24-1.68-16.74-7.49,31.29,2.26,47.05,21.67,73.04,30.51,8.38,2.85,38.57,10.81,39.54-.07.59-6.58-5.38-18.28-6.1-25.9-3.35-35.51,22.4-29.36,64.33-35.84l17.95-3.71h-64.7c-7.56,0-24.73,6.54-28.47,11.3-10.73,13.66,14.26,60.84-39.74,39.5-16.86-6.66-29.6-18.7-48.57-23.11-4.96-1.15-8.6.63-7.31-3.68,23.31-2.91,59.44,32.57,79.58,28.82,13.16-2.45,6.23-26.5,7.14-33.36,4.42-33.09,74.61-19.58,106.68-23.93,20.94-2.84,40.57-11.28,60.83-15.55-.92-2.09-8.61.15-10.63.52-30.14,5.54-51.56,14.95-84.49,13.48-19.91-.89-48.75-7.76-67.81-4.52-22,3.74-12.07,42.11-35.7,42.42-14.72.19-38.38-18.44-55.61-16.9-1.88-5.22,6.91-2.74,12.16-1.48,10.95,2.63,36.59,17.01,45.76,15.07,13.27-2.8,11.12-31.39,24.41-39.02,15.27-8.77,55.96.53,75.27,1.42,35.38,1.63,73.79-11.57,108.5-17.7,18.08-3.19,48.62-9.16,66.61-8.32,23.7,1.11,37.97,15.19,57.15,22.45,5.24,1.98,19.86,8.41,23.53,3.57,5.63-7.43-30.13-32.33-13.07-42.54,14.24-8.52,39.28,15.21,49.22,13.42,6.2-1.12,28.91-23.15,35.33-27.88,11.23-8.26,34.9-24.03,51.01-12.99-3.08-18.23-23.73-11.51-39.4-4.39-12.9,5.87-49.8,32.48-58.89,33.36-22.27,2.14-40.14-25.8-62.2-27.91-10.47,12.76,7.79,27.23-.28,40.87-6.03,10.19-26.68-2.59-36.39-3-7.83-.33-33.23,2.26-42.38,3.21-70.53,7.3-90.95,37.31-171.46,17.34-18.67-4.63-36.86-16.3-53.3-2.98-11.83,9.58-14.7,29.48-38.46,27.26-8.85-.83-20.59-3.55-30.8-4.79-2.5-.3-2.62.64-2.28-1.96,12.84-1.88,32.67,7.35,43.75,4.23,15-4.23,18.81-31.53,42.42-33.17,12.24-.85,37.61,9.41,51.16,12.22,66.83,13.88,97.05-13.78,157.46-20.14,10.11-1.06,36.54-3.69,45.45-3.19,7.49.42,27.43,11.11,31.71,4.81,8.03-11.8-10.23-29.82-.39-42.68,24.37-2.06,43.67,29.5,64.45,27.9,5.68-.44,16.89-7.17,21.5-9.95,15.86-9.57,28.64-21.48,49.12-27.74,33.24-10.16,29.16,7.28,38.1,21.39,18.23,28.76,68.67,43.2,113.71,45.31,5.84.27,29.89,1.28,30.98-2.63-18.2-20.89-57.8-40.66-42.68-68.03,9.54-17.27,46.4-27.91,72.6-29.31,35.18-1.89,65.88,3.89,98.16,11.97l-20.9-6.76c-73-25.65-214.66,4.29-146.89,69.49,3.39,3.26,21.17,16.9,21.47,18.93.56,3.85-17.68,1.55-21.7,1.22-44.42-3.61-92.15-18.33-105.91-48.43-2.48-5.43-3-15.71-5.45-19.42-5.72-8.66-35.79-.84-44.76,2.56-15.78,5.98-49.9,30.64-63.29,31.47-25.69,1.59-40.91-27.75-60.58-33.31-10.18-2.88-27.55,11.33-28.54,17.75-1.29,8.36,6.45,11.96-3.72,20.54-15.39,12.99-53.46,13.9-76.57,18.71-49.6,10.31-91.56,34.6-141.12,7.24-6.93-3.83-12.45-8.59-17.59-13.44s-8.75-15.55-21.19-8.97c-6.62,3.5-15.4,13.77-22.14,18.46-17.18,11.95-35.67,12.67-58.63,16.98,9.44-5.32,24.73-5.2,35.85-7.94,21.76-5.37,28.35-19.91,43.25-28.59,15.66-9.12,24.47,10.32,33.61,17.01,48.86,35.77,99.83,6.75,152.92-3.48,19.02-3.67,47.49-4.81,63.1-12.55,19.89-9.87,5.21-16.81,10.41-27.17,2.43-4.85,18.2-16.29,25.81-17.11,11.56-1.24,36.64,24.66,46.89,29.82,14.13,7.11,21.1,4.56,34.09-1.56,16.61-7.82,29.19-18.79,47.83-25.59,13.38-4.88,36.85-10.64,47.55-.89.52,45.06,65.97,67.16,127.01,66.57-26.96-22.54-59.31-47.39-24.98-75.42,37.17-30.36,106.76-26.63,156.33-13.85,18.53,4.78,41.45,15.16,58.9,18.31,16.89,3.05,44.4,6.58,61.94,8.31,13.17,1.3,26.81,1.85,40.13,2.14ZM692.05,181.22c-37.19,6.75-56.16,26.25-40.31,50.97,5.37,8.37,40.48,35.77,39.99,39.36-.13.96-2.19,3.17-3.37,3.73-6.5,3.07-45.88-.23-55.73-1.54-28.29-3.77-55.76-12.46-75.31-26.53-1.7,1.99,5.53,5.82,8.36,7.51,25.58,15.31,70.6,22.89,104.5,25.36,6.66.49,16.39,1.5,22.71,1.18,23.33-1.2,6.89-16.16.4-23.36-19.15-21.21-59.84-45.19-20.23-68.67l18.99-8.01ZM711.84,187.22c-28.9,3.75-44.38,18.31-31.26,37.03,11.02,15.73,56.93,44.1,33.6,61.99-9.93,7.61-32.31,2.15-46.17,1.26-1.68-.11-5.17-1.19-4.86.7,21.5,2.4,40.64,12.22,63.16,11,19.49-1.06,17.39-6.43,13.38-16.77-7.43-19.16-30.28-34.96-43.85-52.2-11.93-15.16-15.03-25.39,6.09-38.04,3.27-1.96,7.42-2.92,9.92-4.97ZM759.05,188.21h-25.12c-7.76,0-24.46,4.46-30.44,8.01-17.14,10.16-9.88,23.14-.47,34.3,11.86,14.08,54.76,50.62,44.58,66.67-5.75,9.07-40.95,5.86-52.48,3.03,1.07,1.68,6.95,2.79,9.46,3.27,15.06,2.93,50.58,4.89,49.79-10.62-1.21-23.89-37.97-46.38-47.77-68.7-8.02-18.29,7.94-26.52,31.47-33.23l20.98-2.72ZM775.78,195.22c-19.99-2.07-38.04-2.06-54,7.01-23.93,13.6,2.3,34.5,13.67,47.97l-9.74-19.6c-3.71-15.25,10.87-31.16,34.49-34.13l15.58-1.25ZM801.66,207.22c-22.1-5.83-47.67-10.67-62.7,5.3-15.45,16.42,5.3,35.5,17.81,49.69,2.29-.78-.43-2.41-1.02-3.33-11.28-17.49-27.35-35.4,6.12-48.31,14.36-5.54,20.08-3.94,34.9-2.62,1.65.15,5.25,1.11,4.9-.72ZM803.19,215.22c-24.74-5.9-54.99.33-51.58,20.38,2.58,15.21,24.55,30.43,28.77,45.6,2.7.25,1.49-2.25,1.16-3.26-6.36-19.3-31.16-46.87,5.84-59.63l15.81-3.1ZM544.37,242.21c-11.25-14.96-9.09-35.81-41.81-18.98-16.5,8.49-28.35,22.05-41.94,32.45l-10.6,6.51c3.94.26,13.12,3.11,16.44,1.82,2.01-.78,19.84-21.56,25.39-25.82s24.19-16.4,32.28-14.27c8.27,2.18,12.04,14.75,20.24,18.28ZM938.69,271.2c-20.41-11.46-50.04-11.25-72.57-19.82-18.25-6.94-43.95-28.59-65.21-28.25-14.32.23-23.79,8.5-23.64,17.53.23,13.25,14.45,30.24,16.6,44.17,2.15,13.88-2.35,34.87-17.29,45.4l-11.44,5.97c32.85-6.55,35.73-32.12,31.71-51.32-2.45-11.72-8.69-19.79-13.01-30.45-8.15-20.1,14.04-27.53,40.67-19.71,18.12,5.32,34.55,19.16,49.62,23.41,9.78,2.75,25.67,3.46,36.83,5.81,9.45,1.99,18.13,5.56,27.73,7.27ZM946.3,257.2c-22.34-11.04-51.34-13.9-76.69-21.11l-26.83-10.87c7.95,4.51,24.37,15.17,33.57,17.44,9.21,2.27,24.88,2.88,36.13,5.27,11.63,2.46,22.39,6.53,33.82,9.28ZM532.2,238.21c1.03-.64-7.56-10.43-10.19-10.87-8.81-1.48-28.78,14.99-33.67,19.57-4.15,3.89-14.85,17.79-18.64,19.76-8.47,4.38-29.43-5.78-34.27-1.48-5.72,5.1,43.42,49.76-4.11,44.79-23.12-2.42-46.29-16.73-63.53-26.27-1.21-.67-3.06-2.62-4.57-1,22.1,15.74,76.98,41.24,110.24,38.42,6.26-.53,21.35-4.65,23.11-8.88,2.61-6.27-33.21-17.76-28.03-29.31,1.87-4.17,13.89-5.2,16.07-6.97s8.54-18.94,11.86-23.71c7.41-10.65,15.87-17.99,35.72-14.04ZM841.25,251.2c-7.84-5.77-43.65-20.75-47.1-6.43-2.47,10.25,14.08,24.18,12.1,35.44,2.6.19,1.66-3.44,1.58-4.54-.47-6.67-2.83-11.46.66-18.47,5.26-10.56,19.6-8.62,32.76-5.99ZM555.04,262.21l-18.35-16.44c-35.11-17.19-36.06,20.4-46.45,31.37-6.45,6.81-23.53,2.7-11.97,14,10.27,10.05,41.24,17.9,13.34,29.9-17.78,7.65-32.7,3.48-50.67.61-1.53-.24-4.98-1.31-4.63.55,29.26,8.68,65.29,11.82,90.53-4.02,19.33-12.13-11.98-23.01-18.18-35-5.39-10.43.12-33.68,21.25-33.03,10.33.32,15.7,10.23,25.13,12.06ZM439.33,259.22c-8.67-1.39-29.99-18.67-37.9-10.41-9.13,9.54,15.94,27.37,16.54,36.99.21,3.44-4.78,7.2-9.96,7.4-5.09.19-17.06-4.69-21.83-6.58-19.81-7.86-33.47-21.56-58.91-22.31l-11.24,1.88c43.97-1.11,66.07,27.6,103.54,37.49,4.83,1.28,24.08,5.59,27.15,2.37,1.79-1.88-1.26-11.01-2.36-13.66-2.8-6.7-19.1-24.67-11.83-30.17,2.23-1.69,6.25-1.18,6.79-3.01ZM559.61,272.2c-11.16-4.26-27.84-25.31-40.27-12.94-5.34,5.31-6.65,13.86-4.73,20.01,3.33,10.67,29.63,22.1,26.45,33.19-1.76,6.15-20.56,15.44-29.11,17.95l-22.36,4.8c26.48,1.8,52.02,6.02,78.03-.23,28.56-6.86,6.76-7.62-1.67-16.42-2.88-3.01-3.31-6.58-5.72-9.24-7.6-8.38-29.27-21.26-20.69-31.8,4.49-5.52,11.34-5.72,20.08-5.31ZM819.94,259.71c-2.35,9.41,1.74,22.65,0,32.5,2.19.26,2.02-1.9,2.32-2.97,1.93-6.77.36-15.95,14.01-17.8,12.3-1.67,19.8,3.06,30.46,5.53,11.93,2.76,24.23,4.19,36.95,3.74-15.76-2.13-30.6-4.08-44.36-9.87-9.49-3.99-24.88-15.58-36.81-13.68-.94.15-2.45,2.06-2.57,2.55ZM719.47,311.2c15.58,3.94,32.63,1.56,41.41-8.28,9.89-11.08-.49-22.06-6.43-32.7-2.86-.2-1.27,2.03-.78,3.01,6.95,13.89,16.62,30.09-12.06,36.03l-22.14,1.94ZM592.34,295.21c5.17-.96,16.09.7,22.07,0l-26.43-7.14c-11.82-1.75-35.2-17.63-42.12-6.3-1.69,8.08,15.89,17.98,21.13,24.09,2.32,2.7,2.65,6.08,5.01,8.71,4.25,4.74,24.82,12.19,18.15,18.22l-18.36,7.42c13.04.27,21.98,6.95,34.11,9.06,22.35-16.01-19.75-32.98-21.92-43.63-.67-3.31,3.93-9.6,8.35-10.42ZM835.16,287.71c-1.29,7.32.95,16.02,0,23.5,2.92-.91,3.25-4.05,5.43-5.93,6.23-5.4,14.85-8.26,24.68-9.79,23.84-3.71,46.55-3.15,68.85,3.71-17.33-10.09-42.66-8.4-63.09-12.05-6.93-1.24-24.89-7.69-29.31-7.74s-6.12,5.84-6.55,8.3ZM681.41,310.2c28.34,5.59,57.75,21.97,83.76,3.54,13.25-9.39,11.97-19.86,7.56-31.52-2.87-.2-1.23,2.1-1.07,3.2,1.45,10.31,2.41,17.28-9.5,25.33-23.02,15.56-50.24,2.77-76.11-1.1l-4.63.55ZM777.33,312.22c-3.71,7.06-20.84,14.56-31.59,15.75-25.51,2.84-64.81-12.65-89.84-18.51-13.52-3.16-31.3-7.35-45.48-8.12-3.67-.2-16.1-1.05-17.24,1.47-1.46,3.23,24.11,21.82,26.59,29.39s-.5,23.44-15.2,23.1c-4.15-.1-6.55-2.52-9.93-1.59,5.74,2.13,11.09,13.68,15.21,15.03,10.21,3.36,21.7-15.02,22.71-20.11,3.21-16.25-19.07-35.96,26.39-32.16,33.42,2.79,98.05,34.51,118.46.3.51-.85,3.11-4.64-.07-4.55ZM244.48,302.22c-20.14,5.21-40.73,14.8-53,26.68-19.96,19.31-3.91,22.91,5.03,40.32,9.97,19.44-1.88,26.14-27.75,33.75l-17.14,3.23c18.77,1.67,62.14-9.08,65.35-22.55,4.53-19-30.69-31.83-13.87-55.12,8.12-11.26,26.96-18.92,41.38-26.31ZM953.91,320.2c-14.02-9.7-39.54-18.24-60.12-18.07-6.05.05-25.49,2.26-31.18,3.61-19.5,4.65-21.48,27.94-24.38,39.47l13.38-19.69c20.26-19.26,54.2-20.8,85.08-11.49,5.9,1.78,10.98,4.98,17.22,6.18ZM306.9,303.22c-39.62,6.33-15.32,25.49-10.13,41.14,4.33,13.06,2.05,24.21-3.56,36.84l7.16-9.78c5.02-10.64,6.49-23.59,4.98-34.7s-14.15-23.58,1.55-33.51ZM821.46,326.71c.97-6.87-.71-14.54,0-21.5-2.67-.23-1.46,2.26-1.53,3.49-.51,9.02-1.11,16.22-6.45,24.77-15.63,25-53.88,23.37-86.95,32.88-32.4,9.31-56.91,25.12-89.29,33.36,4.97.84,11.78-.29,16.82-.96,43.51-5.86,87.34-23.75,127.28-36.39,6.07-1.92,13.71-2.7,19.32-5.31,11.87-5.52,19.51-21.16,20.81-30.33ZM348,311.2c-7.7-5.25-17.95-6.51-27.61-2.63-13.06,5.24-5.36,11.06-3.32,18.46,4.19,15.19,5.01,28.04-1.02,43.18,2.48-.22,3.1-3.61,3.79-5,2.65-5.37,5.21-12.2,6.44-17.77,2.88-13.06-3.48-32.31,21.72-36.24ZM200.32,307.22c-17.31,4.09-39.92,6.6-56.3,11.51-25.01,7.49-5.27,25.88-.77,38.47,6.5,18.21-3.29,27.19-31.98,28.09l-31.21-4.59c20.12,8.32,42.9,13.91,66.67,9.8,3.45-.6,20.1-5.15,21.29-6.5,4.2-4.75-10.42-16.91-13.65-22.12-10.62-17.18-9.47-36.21,16.97-46.21l28.97-8.46ZM270.37,389.21c14.26-11.85,18-29.51,12.98-44.03-4.12-11.93-17.56-22.34-9.96-35.96-14.65,7.11-16.73,20.87-10.72,31.55,2.37,4.22,7.43,8.07,9.95,12.46,6.91,12.06,4.41,24.19-2.25,35.99ZM235.34,402.2c2.85.44,3.62-1.04,5.33-1.99,18.73-10.35,28.55-25.35,21.98-41.44-1.98-4.86-7.08-8.38-9.81-12.56-7.77-11.91-7.17-23.19.75-35-7.32,4.87-21.19,15.92-22.73,22.57-2.15,9.27,13.65,19.08,18.24,27.9,7.98,15.35,3.8,29.05-13.76,40.53ZM593.11,386.22c-3.6,2.25,15.3,6.69,17.63,6.91,34.17,3.12,76.74-24.14,109.69-33.77,22.41-6.55,58.73-9.28,73.65-20.62,9.56-7.26,12.74-16.07,13.65-25.52l-5.78,10.69c-9.74,13.62-30.43,21.7-53,23.19-19.95,1.31-39.94-2.81-59.27,1.07-29.8,5.97-43.43,45.79-89.7,40.03-2.17-.27-5.66-2.73-6.88-1.97ZM197.28,315.22c-38.04,4.48-49.71,22.42-34.8,45.35,7.79,11.97,28.28,21.11,2.32,30.81-16.86,6.3-29.04,6.05-47.64,4.95-1.71-.1-5.47-.92-5.13.87,21.88,3.49,40.65,4.85,61.37-2.17,35.03-11.87,8.37-26.76.96-43.27-6.91-15.41,8.4-25.73,22.91-36.54ZM179.02,411.2c36.34-3.07,74.53-20.18,59.17-47.36-7.35-13.01-25.53-20.04-16.2-35.9,2.1-3.57,6.2-6.08,7.25-9.73-6.03,2.92-12.52,7.67-15.87,12.06-13.91,18.19,10.88,29.72,13.97,46.69s-14.9,23.11-33.58,30.43l-14.73,3.81ZM375.4,335.2c-5.59-4.52-18.86-20.14-28.96-12.51-5.27,3.98-2.24,10.17-3.02,15.01-1.16,7.18-3.23,14.35-4.54,21.51l10.89-15.33c6.27-5.67,14.43-9.47,25.63-8.67ZM746.86,339.22c-31.01,1.65-57.73-11.76-86.72-15.55-4.7-.61-15.28-2.3-18.96-.57s2.47,18.58,2.26,22.61c-.66,12.6-21.67,41.62-44.23,25.49-1.93,11.76,6.92,11.54,20.82,8.19,26.97-6.5,37.74-31.17,62.91-37.68,16.13-4.17,37.06-2.62,53.96-1.46l9.96-1.04ZM424.12,371.2c-7.07-4.25-15.52-7.39-22.86-11.48-8.8-4.91-18.83-16-32.39-13.31-10.44,2.07-19.92,30.76-23.9,37.79,11.98-7.71,13.74-20.7,33.08-22.76,20.78-2.21,26.75,10.49,46.07,9.75ZM672.28,405.2c32.18-3.25,62.39-12.65,94.36-16.5,8.63-1.04,9.99-.41,17.53-.41,18.08,0,30.32-19.01,32.71-29.09-9.1,7.29-21.39,8.17-32.99,11.82-24.88,7.83-49.22,16.45-74.05,24.36l-37.56,9.81ZM428.68,383.22c-7.32-.45-15.88-.9-22.79-2.53-8.5-2-16.73-9.44-25.58-7.84-6.31,1.14-13.94,11.91-18.26,16.09s-10.01,7.88-14.04,12.27c8.09-1.6,14.15-5.02,22.51-6.71,15.51-3.13,31.41-3.47,46.28-9.6l11.89-1.67ZM955.42,404.21c-5.64-12.89-26.3-28.73-48.79-25.56-13.39,1.89-17.46,10.85-27.31,16.06l22.43-6.27c24.64-2.73,38.45,4.48,53.67,15.76ZM521.56,382.2c8.39,2.75,22.21,5.66,29.45,9.16,4.15,2.01,4.55,4.12,7.3,6.21,1.34,1.02,1.67,2.45,3.61.66,3.11-2.88,3.13-7.7-1.72-9.9-3.53-1.6-27.09-6-32.47-6.67-1.58-.2-6.4-1.42-6.16.54ZM503.27,420.22c-18.1-.83-14.25-6.47-18.58-14.3-3.69-6.69-16.5-13.94-27.08-15.7,5.74,3.15,9.66,6.41,13.4,10.69,9.8,11.21,3.9,18.8,27.14,20.18,1.7.1,5.46.93,5.12-.86ZM529.16,413.2c-8.01-10.87-17.09-16.51-35-19.99,1.74,3.42,5.08,6.29,7.26,9.72,1.04,1.63,1.68,5.77,2.13,6.1,1.09.82,21.96,3.74,25.62,4.17ZM523.08,433.21h-29.69c-.74,0-9.61-1.37-11.14-1.68-26.99-5.44-16.85-27.37-42.92-33.81-19.41-4.79-23.84,2.13-39.22,5.21-5.49,1.1-10.74.86-15.64,1.73-25.47,4.5-42.4,14.83-62.34,25.54,5.8-.23,11.35-2.13,16.7-3.52,39.55-10.25,88.18-36.69,120.98-4.4,2.32,2.28,6.14,9.53,8.81,10.28,15.98,2.13,32.83,2.1,49.15,1.66,1.87-.05,5.65.76,5.31-1ZM798.63,396.22c-8.56,2.86-14.87.56-23.58,1-25.18,1.27-55.83,11.49-81.13,14.71l-33.81,5.27c13.87-.57,28.03-1.02,41.85-2,17.81-1.25,39-4.71,56.3-5.06,6.17-.12,13.28,2.51,16.44,1.92,3.58-.66,25.29-15.13,23.93-15.85ZM463.69,444.22c-15.02-1.37-15.17-12.75-25.05-19.05-23.15-14.76-45.56,1.93-69.32,6.06-.36,1.86,3.07.74,4.64.55,21.06-2.59,37.02-4.88,57.28,2.26,9.46,3.33,16.59,10.67,27.07,11.23,1.58.08,5.81.61,5.37-1.03ZM763.6,420.22l-115.69,8.98c23.25.98,45.68,4.38,69.24,2.99,10.2-.6,34.49-5.17,42.97-8.78,2.03-.86,4.1-1.2,3.48-3.2ZM950.86,458.21c-15.37-23.58-46.87-47.27-83.72-22.49,6.39.33,12.5-1.63,18.94-1.54,27.5.41,40.96,11.98,59.46,22.03,1.71.93,2.46,2.43,5.32,1.99ZM716.41,443.22c-38.2,1.26-75.26-5.23-112.64-9l30.71,6.31c22.66,3.38,45.67,5.47,68.99,4.66l12.95-1.98ZM360.94,450.21c8.36-.32,17.42,0,25.88,0s28.79,8,39.58,8h22.07c-1.1-1.82-6-1.44-9.02-2.58-5.48-2.06-10.91-7.51-18.3-9.98-22.04-7.34-46.9.32-68.58,4.56.52,2.74,7.19.03,8.36-.01Z"/>
</svg>