<?xml version="1.0" encoding="UTF-8"?>
<svg id="visual" xmlns="http://www.w3.org/2000/svg" version="1.1" viewBox="0 0 960 540">
  <!-- Generator: Adobe Illustrator 29.5.1, SVG Export Plug-In . SVG Version: 2.1.0 Build 141)  -->
  <defs>
    <style>
      .st0 {
        fill: #001d6f;
      }

      .st1 {
        fill: #97c8e1;
      }

      .st2 {
        fill: #013687;
      }

      .st3 {
        fill: #96c8e1;
      }

      .st4 {
        fill: #015cb7;
      }

      .st5 {
        fill: #026aba;
      }

      .st6 {
        fill: #014ca9;
      }

      .st7 {
        fill: #0382cb;
      }

      .st8 {
        fill: #2e8dd0;
      }

      .st9 {
        fill: #4daee0;
      }
    </style>
  </defs>
  <rect class="st0" x="1.45" width="958.55" height="464.5"/>
  <path class="st0" d="M873.21,454.5c2.06-.14,5.86-.24,7.77,0,11.05,1.38,25.04,5.54,37.02,6.92,13.88,1.6,28.12,1.56,42,3.08v76H1.45v-83c15.95-5.95,30.21-11.03,47.86-13.55,84.82-12.11,162.57,28.58,249.41,24.54,13.29-.62,49.52-7.86,57.66-6.99,3.66.39,9.6,3,13.93,3.75,39.85,6.86,81.11,6.76,119.69-4.09,32.76-9.21,59.61-27.19,91.79-37.14,81.65-25.26,149.55,29.24,228.56,33.52,23.03,1.25,41.1-1.53,62.87-3.04Z"/>
  <path class="st8" d="M960,361.5v68c-25.12,10.84-51.33,18.88-79.02,25-1.91-.24-5.71-.14-7.77,0-7.68-3.62-17.89-4.85-26.58-6.98-93.62-22.92-173.35-54.39-275.47-40.7-57.19,7.66-109.25,27.28-163.6,41.7-11.36,3.01-40.93,11.75-51.19,11.98-15.19.35-50.22-18.54-62.79-26.03s-24.83-17.28-37.63-24.95c-2.33-1.39-7.46-5.08-9.68-5.02v-1c36.02-9.75,67.4-27.37,102.33-39,57.82,24.37,108,66.27,179.03,40.71,25.99-9.35,46.88-25.08,70.97-36.71,72.54,22.17,150.69,21.43,221.97-3.14,8.45-2.91,17.92-6.69,25.44-10.86,37.58,5.08,75.7,9.7,113.99,7Z"/>
  <path class="st6" d="M356.37,460.5v1c-8.14-.87-44.37,6.37-57.66,6.99-86.84,4.04-164.59-36.65-249.41-24.54-17.65,2.52-31.91,7.6-47.86,13.55v-38h1.3c22.59,3.9,61.23,1.91,81.61-7,.5-.22.89-.68,1.3-1,1.07.17,3.45-.24,3.89,0,.11.06-.58,1.61.92,1.98,43.59,10.71,92.44,8.67,135.36-2.27,5.68-1.45,14.35-6.55,20.46-6.7,2.23-.05,7.36,3.63,9.68,5.02,12.81,7.67,24.66,17.21,37.63,24.95s47.6,26.38,62.79,26.03Z"/>
  <path class="st1" d="M960,361.5c-38.29,2.7-76.41-1.92-113.99-7-1.86-.25-3.27-.92-3.89-1,10.8.09,22.41-7.54,30.98-12.58,25.35-14.9,51.58-37.25,68.53-58.09,6.63-8.15,11.38-17.34,18.36-25.32v104Z"/>
  <path class="st6" d="M960,429.5v35c-13.87-1.52-28.11-1.48-42-3.08-11.98-1.38-25.97-5.54-37.02-6.92,27.69-6.12,53.89-14.16,79.02-25Z"/>
  <path class="st1" d="M1.45,371.5c11.88,6.67,21.15,16.49,34.97,21v1c-1.24-.71-11.52,6.41-13.62,7.96-7.43,5.45-14.26,11.5-20.05,18.04h-1.3v-48Z"/>
  <path class="st3" d="M598.6,367.5v1c-24.09,11.63-44.98,27.36-70.97,36.71-71.03,25.56-121.21-16.34-179.03-40.71v-1c49.78-18.42,100.94-33.02,157.03-23.72,32.69,5.42,61.65,19.41,92.97,27.72Z"/>
  <path class="st9" d="M842.12,353.5c.61.08,2.02.75,3.89,1-7.52,4.16-16.99,7.94-25.44,10.86-71.27,24.57-149.42,25.31-221.97,3.14v-1c73.06-42.16,161.52-25.14,243.52-14Z"/>
  <path class="st9" d="M348.6,363.5v1c-34.93,11.63-66.31,29.25-102.33,39-20.56-13.11-44.39-26.4-71.24-30v-1c3.81-.08,36.97-14.27,45.13-16.66,34.43-10.08,67.57-12.21,102.36-1.71,8.96,2.71,16.99,6.93,26.08,9.36Z"/>
  <path class="st7" d="M175.02,372.5v1c-28.12,13.21-55.96,26.7-85.49,38-.43-.24-2.82.17-3.89,0-.42-.07-.9.08-1.3,0-13.56-2.78-28.28-8.66-40.5-14.02-.96-.42-1.1-1.9-2.59-2.33-1.83-.52-4.4.27-4.64.08-.48-.37,0-1.63-.19-1.73v-1c31.64-17.89,68.85-26,108.22-24.04,8.85.44,23.55,4.18,30.39,4.04Z"/>
  <path class="st2" d="M873.21,454.5c-21.78,1.51-39.85,4.29-62.87,3.04-79.01-4.28-146.9-58.78-228.56-33.52-32.18,9.95-59.03,27.93-91.79,37.14-38.59,10.85-79.85,10.95-119.69,4.09-4.32-.74-10.27-3.36-13.93-3.75v-1c10.26-.24,39.83-8.97,51.19-11.98,54.34-14.42,106.41-34.04,163.6-41.7,102.12-13.68,181.86,17.79,275.47,40.7,8.69,2.13,18.9,3.36,26.58,6.98Z"/>
  <path class="st4" d="M246.27,403.5v1c-6.11.15-14.78,5.26-20.46,6.7-42.92,10.94-91.77,12.99-135.36,2.27-1.5-.37-.81-1.92-.92-1.98,29.53-11.3,57.37-24.79,85.49-38,26.86,3.6,50.68,16.89,71.24,30Z"/>
  <path class="st5" d="M36.42,393.5c.19.11-.29,1.36.19,1.73.24.18,2.81-.6,4.64-.08,1.49.42,1.64,1.91,2.59,2.33,12.22,5.36,26.93,11.24,40.5,14.02v1c-20.38,8.91-59.02,10.9-81.61,7,5.79-6.54,12.62-12.6,20.05-18.04,2.1-1.54,12.39-8.67,13.62-7.96Z"/>
  <path class="st4" d="M84.35,412.5v-1c.4.08.88-.07,1.3,0-.41.32-.79.78-1.3,1Z"/>
</svg>