<?xml version="1.0" encoding="UTF-8"?>
<svg id="visual" xmlns="http://www.w3.org/2000/svg" version="1.1" viewBox="0 0 960 540">
  <!-- Generator: Adobe Illustrator 29.5.1, SVG Export Plug-In . SVG Version: 2.1.0 Build 141)  -->
  <defs>
    <style>
      .st0 {
        fill: #001d6f;
      }

      .st1 {
        fill: #015cb7;
      }

      .st2 {
        fill: #eef3fa;
      }

      .st3 {
        fill: #0136cb;
      }
    </style>
  </defs>
  <rect class="st0" x="1.22" width="958.78" height="540"/>
  <path class="st1" d="M84.35,412.5v-1c.4.08.88-.07,1.3,0-.41.32-.79.78-1.3,1Z"/>
  <g>
    <path class="st3" d="M107.35,334.09c-1.21,3.97-1.56.86-6.72,1.1-16.18.75-20.79,3.16-38.43-.14-27.45-5.14-45.9-18.94-62.19-33.52v-7.12c8.87,6.51,15.05,14.65,24.55,20.85,7.89,5.16,32.15,16.05,42.48,17.6,5.73.86,32.95,1.4,40.32,1.23Z"/>
    <path class="st3" d="M960,198.76v3.05c-4.96-1.21-9.24-3.35-13.8-5.09-6.46-3.9-5.52-2.86-12.27-5.09-22.32-12.75-53.85-22.69-84.03-27.17-44.99-6.68-96.75-1.63-138.67-8.72-14.03-2.37-17.4-9.2-28.81-12.42-41.37-11.7-117.62-9.44-153.36,10.15-54.24,29.74-20.59,65.81-16.79,102.74.18,1.8.33,13.97-.3,14.57-.93.89-5.79,1.65-7.43,2.26,1.8-3.57,4.68-5.42,4.49-9.51-1.54-33.06-32.06-70.92,1.01-101.31,35.18-32.32,114.02-32.77,166.57-23.19,17.59,3.21,20.81,10.92,33.06,13.68,8.29,1.87,27,2.79,36.42,3.31,36.37,2.02,72.58.84,108.42,6.41,40.01,6.22,72.23,21.32,105.5,36.33Z"/>
    <path class="st3" d="M504.54,273.04c-9.97,3.69-15.23,3.99-27.03,4.96-22.74,1.86-45.96,1.99-68.81,3.19-19.33,1.01-38.26,4.56-57.89,2.78-19.38-1.75-53.45-18.55-72.57-5.9-4.9,3.24-5.1,9.35-7.17,11-3.07,2.47-29.02-1.66-35.61-1.82-20.58-.52-43.33,2.77-62.55,7.42-16.95,4.1-42.11,16.07-58.67,15.01-8.11-.52-18.76-3.83-28.01-4.82-21.5-2.28-34.12.43-52.33-10.05-17.19-9.89-22.53-24.56-30.02-38.08-.87-1.56-.95-3.39-3.88-4.04v-6.11c8.9,4.01,8.68,12.71,12.21,18.86,7.11,12.37,17.09,26.1,35.81,32.2,14.34,4.68,30.42,3.22,45.83,5.2,6.85.88,13.92,3.33,20.38,3.77,15.93,1.09,28.25-6.55,42.24-10.65,35.5-10.4,70.89-13.58,109.37-8.78,5.67-6.11,5.06-11.12,16.8-14.35,29.72-8.18,52.32,9.22,78.53,9.44,15.8.13,35.87-3.26,52.14-4.14,18.28-.99,36.94-.8,55.18-2.05,12.03-.82,23.87-3.03,36.05-3.05Z"/>
    <path class="st3" d="M107.35,334.09c.29-.94-.97-2.42.98-3.1,3.97-1.38,12.69-2.52,17.97-4.17,24.95-7.77,46.87-19.99,73.37-25.59,8.95-1.89,29.89-3.67,38.9-2.84,2.88.27,1.95,1.98,3.14,2.06,4.2.27,11.16-.21,3.66-2.45-33.78-10.07-68.67,8.08-99.32,15.48-10.64,2.57-21.52,4.72-32.57,6.36.25-1.04-.5-3.58.08-4,.79-.58,18.74-2.76,22.85-3.66,48.02-10.55,69.54-29.33,124.25-14.19,9,2.49,19.4,6.61,27.49,10.25,8.41,3.79,30.98,18.62,39.13,17.78,8.78-11.04-19.48-29.36-9.03-39.7,6.27-6.21,26.08,3.67,33.59,5.09,14.85,2.8,31.73-2.83,46.57-4.82,29.29-3.93,81.88-6.88,110.79-2.92,10.03,1.37,21.61,10.69,31.13,8.58,3.26-.72,3.11-9.68,2.38-11.41-.33-.76-2.57-.63-3.18-2.07-5.31-12.48-11.48-24.76-16.61-37.26l6.04.05c4.42,16.56,18.09,32.37,18.39,49.23-1.46,5.96-7.97,5.34-15.22,6.16,3.5,3.08,9.51,2.5,13.79,3.98,14.17,4.92,26.2,16.22,24.52-2.95-3.5-39.81-68.41-81.32-39.05-121.58,10.87-14.92,32.73-20.51,53.28-23.84,3.45-.56,10.62-2.52,11.35-2.64,16.09-2.59,52.53-1.34,66.96,4.24,16.29,6.3,19.65,22.19,38.7,24.18,5.07.53,38.24,1.51,42.88,1.16,3.62-.27,5.63-2,9.15-2.21,4.35-.26,8.4,1.33,12.34,1.23,2.8-.07,2.03-1.95,3.29-2.14,4.74-.73,10.15,1.4,15.07,1.11,3.52-.21,5.82-1.85,10.61-2.2,17.29-1.26,43.26.24,58.49,1.2,3.13.2,8.06,2.83,12.94.4.04-2.35-64.38-7.41-69.81-7.62-27.7-1.06-62.5,2.28-88.8-.1-17.86-1.61-24.79-14.9-40.77-19.75-38.94-11.82-110.13-7.57-134.07,18.91-14.9,16.47-16.03,34.17-13.16,52.84h-4.59c-8.83-34.95,11.75-73.16,70.03-79.01,4.88-.49,7.44-1.34,8.84-1.47,20.66-1.87,59.94.41,78.6,7.02,13.64,4.83,19.29,14.96,34.14,18.05,82.8-3.27,153.26,1.5,227.05,25.89,4.92,2.81,7.1,3.12,12.27,5.09,3.9,2.35,7.74,6.32,13.8,7.12v4.07l-4.62-.5,4.62,3.55v4.07c-9.28-3.62-16.83-8.88-25.59-13.04-48.04-22.8-85.8-24.28-143.93-22.62-21.65.62-79.96,6.91-96.92,1.34-.49-.16-8.29-4.01-8.85-4.34-8.9-5.19-18.66-18.25-28.59-20.71-5.24-1.3-19.14-2.44-25.08-2.69-42.62-1.79-97.04,7.51-100.5,41.15-3.87,37.54,41,65.85,46.06,102.82,3.95,28.87-22.34,10.91-42.38,4.72-24.82-7.67-49.17-9.66-76.44-9.3-3.21.04-15.81-.14-16.64-.04-1.09.13-.87,1.87-2.05,2.06-3.64.57-8.69-.33-13.17.26-12.79,1.69-42.82,6.06-53.83,9.05-11.28,3.06-14.83,7.25-17.39,14.92-5.03,15.07,6.46,20.76,5.78,33.28-.24,4.45-8.99,27.37-11.58,32.06-3.83,6.93-13.39,4.25-19.18-.01-2.13,5.85-4.3,22.57,7.28,24.16,12.89,1.77,19.58-5.56,23.4-12.44,10.42-18.78,6.28-41.8,9.19-61.06,2.09-13.82,29.31-29.6,47.96-34.32,44.8-11.35,93.31-3.9,133.72,10.37,14.3,4.66,19.91,13.55,38.01,11.17,4.53-.6,7.02-11.68,7.31-14.67,4.05-41.66-73.82-74.54-58.88-116.4,5.96-16.7,28.09-27.69,52.61-31.23,17.7-2.55,55.45-5.71,68.57,3.96,6.1,4.5,12.2,12.93,18.28,17.88,21.44,17.48,62.99,5.68,91.89,4.36,2.29-.11,4.99,1.16,7.45.87,1.09-.13.91-2.07,1.92-2.15,2.16-.16,4.84,1.23,7.44,1.08,2.18-.13,3.93-1.78,6.27-1.99,14.88-1.32,34.06-1.67,49.06-1.1,7.78.29,16.75,1.58,22.71,2.39,38.19,5.2,63.42,14.55,89.88,32.8,1.78,1.23,3.35,2.46,6.2,2.5v6.11c-10.81-6.1-20.92-13.09-32.34-18.74-44.71-22.1-90.2-22.97-144.59-18.78-25.81,1.99-60.69,8.29-86.14,6.02-5.16-.46-9.4-4.05-14.52-2.58.62,1.43,5.67,4.82,7.29,5.56,29.31,13.38,55.7,2.21,86.22-2.55,60.52-9.44,112.32-8.08,159.45,18.41l24.62,16.73v16.28c-24.22-20.67-57.69-39.04-97.83-43.45-20.38-2.24-36.41-1.93-56.05.88-22.49,3.22-42.99,8.73-65.91,12.07-1.12.16-.9,1.8-2.1,1.99-11.26,1.81-29.26.76-40.4-1.47-6.72-1.35-12.1-5.47-18.37-5.11,9.07,10.38,28.14,18.65,46.85,17.83s33-8.5,48.76-13.43c34.78-10.89,76.86-14.75,111.44-5.47,32.03,8.59,55.01,25.61,73.6,44.31v89.54c-2.33-.68-3.83-1.85-4.91-3.35-.88-1.22-4.66-11.38-5.85-5.3-.95,4.83,4.88,14.63,10.76,17.81v14.25c-3.18.34-5.26-2.7-6.74-4.17-7.59-7.56-14.41-16.23-16.28-25.33l-1.62,9.73c.95,5.86,14.04,17.25,19.55,22.64,1.39,1.35.88,3.53,5.08,3.24v12.21c-6.04-.78-9.95-4.61-13.76-7.66-7.73-6.19-23.27-20.78-24.58-28.46-1.24-7.27.75-15.88-.01-23.4-.89-8.81-4.95-26.67-11.62-34.01-11.2-12.32-32.37-21.07-53.7-23.39-40.44-4.4-77.03,9.47-116.29,12.09-3.39,2.52,1.09,2.89,2.11,3.85,10.27,9.73,30.26,21.07,34.66,31.73.67,1.62,2.08,12.27,3.02,12.26,5.26-.06,8.46-11.23,8.55-13.75.36-9.63-14.51-26.38-4.76-34.61,8.04-6.78,42.05-11.49,54.16-9.61,1.09.17,1.08,1.69,2.26,1.92,12.94,2.45,23.98,3.61,35.44,7.79,38.8,14.17,43.6,36.92,43.18,64.07-.05,3.05-2,5.66-1.64,9.09.6,5.77,20.11,26.31,26.85,31.08,3.89,2.76,10.54,6.24,16.14,7.1v11.19c-22.54-4.59-33.25-16.88-43.83-29.42-17.26-20.45-10.83-17.13-11.37-39.26-.69-28.05-28.03-50.95-71.32-53.41-8.13-.46-31.48,1.56-37.17,5.34-3.94,2.62,6.98,21.12,7.29,26.74.25,4.4-1.69,7.56-3.08,11.65,2.14,1.52,10.93-8.66,11.96-9.86,4.94-5.74,13.82-23.43,21.84-25.19,3.83-.84,18.63-1.58,22.23-.65,13.45,3.47,33.42,25.06,37.41,34.24,6.22,14.31,2.48,25.07,4.69,38.61.97,5.93,29.38,33.44,36.77,38.69,6.21,4.41,15.39,8.04,24.58,8.62v10.18c-11,.32-22.27-3.05-30.69-7.62-14.29-7.76-45.43-39.96-47.33-52.03-3.11-19.78,4.69-28.93-14.28-47.51-4.13-4.05-19.18-17.84-26.96-12.66-9.64,19.48-28.64,35.99-47.9,51.64,3.07.36,4.09-.25,6.15-1.51,9.41-5.7,21.14-18.97,30.14-22.74,6.9-2.89,16.43-4.06,23.49-.66,1.66.8,12.48,14.9,13.86,17.26,4.48,7.65,5.32,19.75,10.37,26.7,3.65,5.03,15.61,13.91,20.91,19.7,12.51,13.68,18.44,30.31,45.13,33.97,2.17.3,4.79-.78,6.87-.51,1.19.16.94,2.03,1.98,2.13,2.25.2,5.6-1.28,8.25-1.07v11.19c-11.4-.02-24.48-1.7-34.8-4.89-23.33-7.22-30.05-22.22-42.76-35.73-5.59-5.93-15.52-12.98-19.89-18.34-5.44-6.66-12.18-38.97-21.65-40.65-4.15-.73-10.92,8.09-14.32,10.57-16.72,12.19-39.21,20.52-56.8,31.5-4.13,2.58-7.32,5.69-10.66,8.69,2.88.45,3.65-1.06,5.37-2.02,14.21-7.93,26.71-16.71,42.98-23.37,5.57-2.28,11.15-5.32,18.06-3.9,12.23,2.51-1.95,14.55,2.46,18.47,1.69,1.5,9.23,1.38,12.39,2.2,32.84,8.59,53.68,39.72,64.59,60.41l55.03.12v12.21l-66-.47c-2.75-3.11-3.91-6.74-6.08-10-5.07-7.62-11.15-17.06-17.59-25.16s-21.82-21.96-34.47-25.97c-6.3-1.99-20.66-3.18-24.53-5.09-4.72-2.32-2.13-8.87-10.78-6.03-.92.3-13.43,7.87-15.39,9.12-9.49,6.04-16.51,13.52-25.06,19.5-7.45,5.21-18.18,10.14-25.53,15.61,11.74-.19,20.12-8.93,28.6-13.06,11.19-5.44,34.92-10.41,48.53-8.26,1.08.17,1.05,1.68,2.27,1.91,14.52,2.79,20.31,3.01,32.57,9.74,19.67,10.8,33.2,25.19,42.89,40.73l70.57.49v12.21l-58.29.51c.02,2.46,52.93,1.24,58.29,1.53v12.21c-32.93-1.16-83.5,4.36-110.5-10.63-7.13-3.96-12.68-13.53-19.98-17.27-8.26-4.23-25.43-8.34-35.96-8.73-25.65-.94-46,10.59-68.21,16.8-.59,2.59,2.56,1.35,4.71,1.08,22.6-2.9,29.5-7.05,55.2-2.97,21.44,3.4,40.9,9.75,50.01,23.8l124.72-.04v57.35H1.22l-1.22-57.35,122.7-.51-122.7-1.53v-12.21l110.42-.52c1.02-2.36-3.29-1.46-5.36-1.52-11.18-.32-22.66.02-33.69-.04-23.78-.13-47.61.18-71.37.04v-13.23l85.89.51c-28.11-3.02-57.23-2.45-85.89-2.54v-12.21c18.39-.77,36.62,1.29,54.92,1.82,2.47.07,4.18.08,4.89-1.81-19.58-2.64-39.8-3.19-59.81-3.06v-11.19l30.67,1.01c-7.67-4.23-21.05-3.75-30.67-5.08v-77.33c12.34,7.48,25.25,14.03,40.25,19.38,61.51,21.95,121.29,7.16,161.5-28.47,1.23-1.09,6.76-4.32,6.78-4.64.2-3.67-8.9,1.04-9.89,1.55-9.38,4.91-17.34,12.44-26.86,17.79-41.98,23.6-87.42,27.68-136.56,10.2-13.17-4.69-23.65-11.74-35.22-17.84v-7.12c7.22.17,10.18,7.16,12.71,8.86.93.63,4.68.95,6.83,2.07,41.69,21.63,88.54,26.82,134.06,6.25,16-7.23,29.87-20.41,45.38-27.39,6.76-3.04,14.31-4.74,21.86-6.59-2.83-1.24-7.43-.39-10.47.19-19.56,3.7-25.68,11.7-39.37,19.67-25.18,14.66-58.87,24.56-93.37,22.25-32.32-2.17-56.89-14.77-77.63-30.4v-7.12c10.57,6.07,19.94,14.98,31.45,20.34,21.22,9.89,41.55,13.31,67.45,12.18,18.7-.81,35.45-6.37,50.61-13.19,21.78-9.81,39.65-27.56,68.18-30.08,4.2-.37,11.11,2.52,12.36-1.96.03-1.15-4.92-.35-6.48-.23-49.93,3.68-82.29,39.75-130.72,41.46-25.78.91-55.27-9.06-73.71-20.36-6.79-4.16-12.55-8.98-19.13-13.25v-6.11c3.48-.09,4.09,1.41,5.85,2.73,26.63,20.02,49.39,33.88,93.07,31.87,1.31-.06,14.95-1.52,15.69-1.7,1.83-.45,1.93-2,3.02-2.37,36.7-12.57,85.18-43.79,129.7-35.57,1.27.24,1,1.78,2.16,1.96,3.76.6,9.94.02,14.27,1.04-10.67-5.76-29.9-7.98-43.54-7.01-39.9,2.86-77.66,31.63-112.88,32.45ZM655.47,168.82c-5.88-3.85-8.74-7.18-19.04-6.68l16.82,6.61c1.08,1.35,4.88,6.58,6.94,6.58.74,0,3.17-1.98,2.18-2.94-.25-.24-5.35-2.57-6.9-3.58ZM588.87,165.19c-38.13,3.45-52.87,27.62-43.66,50.85,3.64,9.18,11.05,15.69,17.54,23.17,6.86,7.92,12.34,15.71,19.13,22.71,13.82,14.22,22.68,29.03,20.86,46.27-1.23,11.73-4.28,19.45-24.92,18.56-24.63-9.99-46.03-20.07-74.83-24.7-40.16-6.45-77-5.47-108.14,13.7-7.13,4.39-11.24,9.36-17.57,13.96-1.44,17.87.22,68.09-20.97,79.52-7.15,3.86-17.48,6.09-25.6,2.04-3.63-1.81-3.77-4.67-7.11-5.95,12.79,32.16,57.2,13.1,61.14-11.83,2.84-17.96-6.85-23.17,3.64-42.35,11-20.11,24.64-41.14,57.85-47.09,31.68-5.67,72.06.47,98.61,11.69,15.12,6.39,21.88,13.39,42.43,15.85,14.88,1.79,21.25-1.46,33.42-5.9,2.94-5.06,3.34-9.96,1.55-15.27-10.56-31.21-48.13-55.87-66.01-83.42-10.5-16.18-3.98-38.35,14.23-51.15l18.42-10.67ZM651.75,177.39c-.95-5.84-12.9-9.61-20.69-10.17-19.56-1.4-40.18,1.56-53.53,11.3-1.26.92-8.08,6.25-7.04,7.02,1.18.87,5.88-2.52,6.83-3.09,11.85-7.12,26.74-9.93,43.19-11.02,4.88-.32,9.64-.34,14.47.32,6.84.93,10.75,4.18,16.77,5.65ZM679.36,189.6c-2.8-.92-11.11-11.96-13.79-10.16-1.52,1.02,2.21,2.88,3.05,3.56,1.14.92,9.23,7.6,10.74,6.6ZM598.08,181.47c-3.24-2.14-16.41,3.8-18.71,6.4-18.94,21.48,12.87,47.35,27.18,65.81,17.47,22.54,85.76,99.77-1.67,93.7-5.75-.4-7.81-2.22-12.46-2.93-2.28-.35-4.13-.81-3.52,1.32,1.36,2.21,21.66,7.67,25.98,8.2,33.82,4.14,35.78-10.28,49.2-25.23,2.37-2.64,6.4-2.75,6.01-8.25-.66-9.25-32.73-36.78-41.59-46.78-10.26-11.58-17.12-22.21-27.73-33.47-17.36-18.42-35.34-35.87-7.97-54.71,1-.69,8.98-1.63,5.29-4.08ZM636.42,183.52c-2.43-1.99-21.49-.65-25.94.57-4.91,1.35-19.18,12.16-21.19,15.44-6.64,10.82,6.47,22.7,13.42,31.78,2.68.24,1.71-3.61,1.42-4.51-.96-3-4.1-5.54-5.34-8.67-8.35-21.13,3.22-34.03,37.65-31.59-.21-.84.34-2.74-.01-3.02ZM570.47,186.56c-4.09-.57-2.64.69-3.81,2-31.55,35.32,57.49,85.29,63.43,124.8,1.09,7.24.88,12.01-7.45,17.19-7.35,4.58-9.55,3.28-17.35,4.6-1.24.21-1.01,1.79-2.14,1.97-3.99.64-9.93-.4-14.27.03l12.17,3.61c4.49-1.14,10.75,2.52,11.38,2.5,4.36-.16,20.75-3.92,23.14-6.17,7.45-7.02,4.67-16.72,1.92-24.57-11.16-31.86-48.32-61-66.65-91.11-6.78-11.14-7.3-23.83-.37-34.85ZM691,203.26c-2.98-1.29-7.33-2.34-9.37-3.46-1.46-.8-13.15-11-16.08-9.16,4.37,5.59,9.33,8.24,16.15,12.14,1.5.86,2.18,2.61,3.89,3.55,4.19,2.32,16.71,6.46,22.08,6.72,36.83,1.78,51.48-6.48,83.96-12.53,44.83-8.36,83.19-3.55,122.87,10.62,3.72,1.33,6.67,3.44,10.2,4.93.43-2.08-2.56-3.4-4.69-4.51-58.14-30.17-124.74-13.54-186.58-2.85-16.92,2.92-28.79.47-42.44-5.44ZM614.95,223.18v-15.77c0-1.29,6.46-5.61,8.85-6.33,6.68-2.01,10.85.22,17.24-.8-14.76-20.11-44.22.7-32.31,16.35l6.23,6.55ZM953.85,206.9c2.19-1.59-14.65-9.98-18.38-9.15l18.38,9.15ZM654.18,218.52c-5.32-3.06-19.43-12.6-25.99-11.7-4.84.67.7,18.82,1.89,22.09,2.5,6.86,7.22,12.26,10.95,18.69,2.8.23,1.33-2.17,1.1-3.27-1.47-7.21-9.04-20.12,8.83-20.2,11.52-.05,14.13,6.4,23.77,9.24.52-2-.37-2.73-2.25-4.09-3.96-2.86-13.37-7.91-18.31-10.74ZM827.35,214.03c9.76-.88,24.78,0,35.27,0,1.16,0,3.8,2.31,5.37-1.01-43.63-7.98-81.69,6.46-119.61,18.32-1.14,3.43,4.64,2.04,7.54,1.43,21.06-4.39,50.65-16.88,71.43-18.74ZM901.72,223.17c-8.1-4.79-20.09-7.91-30.66-9.14-.79,2.88,1.04,1.67,3.36,2.29,8.97,2.39,18.51,4.04,27.3,6.85ZM858.02,220.13c-6.42-.59-16.08,0-23,0-14.13,0-50.08,11.49-64.91,14.93-15.47,3.59-28.98,7.81-46.27,6.45-.13,1.5,5.5,1.79,7.08,1.9,41.18,2.92,60.42-11.95,95.65-18.71,13.28-2.55,22.21-1.25,35.27-2.55.56-1.02-3.2-1.97-3.82-2.02ZM917.05,251.67c3.37-2.53-18.46-13.07-21.93-14.44-43.21-17.08-70.01-3.17-109.57,7.07-3.23.84-16.59,2.91-17.25,3.32-5.72,3.52,11.63.9,12.6.71,31.07-5.87,44.88-15.95,80.24-14.47,11.56.48,27.66,4.99,37.8,8.77,2.44.91,16.99,9.89,18.11,9.05ZM669.58,240.88c-3.02-1.54-15.43-10.18-17.82-8.53-.75,13.87,11.7,24.7,21.47,36.11l12.25,7.63c-7.43-10.01-14.14-20.44-16.85-31.53,11.55,2.85,21.78,9.5,34.43,10.22,1.57.09,5.86.61,5.42-1.06-7.85-1.75-17.34-4.04-24.62-6.56-4.89-1.69-10.25-4.22-14.29-6.28ZM909.39,259.81c-10.42-9.03-31.02-17.37-48.34-18.3-18.97-1.02-29.34,1.71-46.32,5.86-3.49.85-6.44,3.13-9.56,3.83-5.84,1.31-15.16,2.03-21.54,3.53-1.09,3.19,3.56,2.05,6.7,1.89,36.29-1.78,60.89-17.55,99.7-5.85,7.8,2.35,12.66,6.23,19.35,9.03,5.01,4.34,10.2,9.21,15.04,13.93l12.55,15.57c.43-1.77-.3-3.18-1.18-4.8-4.23-7.87-16.49-20.54-26.41-24.7ZM912.45,278.13c1.07-.74-4.98-5.63-6.17-6.58-19.59-15.58-42.43-20.41-72.03-13.75l14.28,1.03c2.24,3.89,6.07,1.08,9.54,1.47,13.17,1.48,27.45,4.06,38.64,9.35,1.95.92,13.85,9.79,15.74,8.48ZM769.84,266.94h-42.17c-7.38,0-14.84-3.29-18.76-4.01-3.01-.56-11.66-1.67-15.09-2.03-6.55-.68-3.56,2.82-1.35,4.97,22.61,22.01,77.64,41.02,60.56,71.83-1.71,3.09-6.61,6.11-6.95,9.64,15.15-7.11,24.51-18.61,15.46-30.66-7.09-9.43-20.5-16.64-30.06-25.06-6.73-5.93-15.54-14.65-1.6-19.13l29.25-1.96,10.7-3.58ZM659.42,277.12c-2.15-.73-4.09.64-3.05,1,2.15.73,4.09-.64,3.05-1ZM692.26,279.74c-1.28-.88-1.74-2.46-3.68-2.62-1.36,5.8,8.14,7.88,13.06,11.17,5.53,3.69,11.52,9.23,16.82,12.24,1.73.98,2.51,2.45,5.37,2.03.63-1.88-1.56-2.41-3.05-3.56-7.85-6.04-19.76-13.17-28.52-19.25ZM709.5,334.77c1.62-2.17,2.35-6.74,1.97-9.21-1.44-9.34-36.24-36.42-47.14-44.07-.85-.6-2.85-3.61-4.91-2.33-1.28.8,4.17,3.33,4.58,3.77,9.39,10.22,18.84,16.09,29.12,25.24,15.34,13.64,14.47,25.46-3.75,37.1-2.17,1.38-5.69,1.73-7.75,3.04-11.76,7.49-23.8,18.09-39.77,21.47-6.81,1.44-13.98.4-20.77,1.44,3.2,3.73,6.91.96,11.22,1.51,1.21.16.34,1.88,3.23,2.14,11.56,1.03,26.87-2.19,35.28-7.27,6.03-3.64,7.29-10.11,10.6-13.85.84-.95,15.01-11.07,17.74-13.12,1.95-1.47,9.34-4.53,10.33-5.86ZM635.65,360.55c-5.97.66-16.35,0-23,0-.72,0-15.16-2.27-4.27,1.82,9.28,3.49,26.84,2.09,36.23-.97,1.34-.44,15.28-6.76,15.96-7.22,1.39-.93,1.46-3.2,3.41-4.34,17.84-10.44,37.84-15.58,25.61-34.75l-40.88-32.88c2.29,3.81,6.73,8.72,10.16,12.12,4.91,4.87,13.36,10.3,17.04,16.12,3.97,6.29,4.16,11.71.22,17.95-2.58,4.09-15.29,19.52-19.1,22.94-3.54,3.17-15.76,8.61-21.37,9.22ZM524.47,294.4c-12.02-10.17-29.67-7.92-46.76-8.14-38.22-.49-67.49,2.37-103.16,8.07-7,1.12-16.41,1.63-23.47.64-9.01-1.26-36.33-15.34-30.53,1.77.25.75,2.51.79,2.9,1.5,3.16,5.81,20.48,30.27,3.87,31.81-9.47.88-33.66-15.18-42.86-19.36-1.4-.64-3.33-2.45-3.81-.02,13.61,5.27,25.38,13.73,35.21,21.92,8.52,7.1,21.55,18.37,23.06,27.44,1.25,7.5-2.2,14.83-1.57,22.3-.14.99,3.24.78,3.86.62,2.12-.56,12.63-26.07,13.01-29.03.7-5.42-1.8-18.52-2.93-24.49-.37-1.96-4.05-.99-2.99-7.95,1.82-11.96,9.14-19.99,27.06-22.73,51.27-7.83,80.36-11.08,131.42-7.19,8,.61,9.63,3.79,17.68,2.83ZM509.13,309.69c-12.92-2.07-28.55-3.67-41.96-2.93-14.44.79-38.39,5.52-47.81,13.05-6.93,5.53-25.56,33.08-28.13,40.35-3.46,9.82,2.81,21.29,1.43,32.49-.26,2.09-6.4,17.36,1.53,8.14,17.74-20.64,12.74-47.82,33.72-69,13.24-13.37,30.26-16.36,52.99-19.99l28.24-2.1ZM730.73,306.64c-3.7-.21-.77,2.72-.5,3.35,1.98,4.59,6.57,8.61,7.22,13.53l-.59,15.64c8.53-7.7,8.82-16.69,2.58-25.09-1.03-1.39-7.19-7.34-8.71-7.43ZM715.68,308.99c-.46-.34-5.1-2.59-4.09.16,2.41,2.42,5.84,5.68,7.45,8.29,12.97,20.88-11.48,26.12-26.5,40.16-6.61,6.17-11.67,16.1-22.77,19.48-46.64,14.24-82.34-12.86-125.96-13.37-21.12-.25-43.3,6.87-60.99,14.26-1.96.82-5.82,3.65-7.42,4.96,13.12-1.4,22.92-6.09,36.45-7.85,31.22-4.08,60.05-4.58,90.1,2.75,23.32,5.69,49.5,22.04,72.83,4.33,7.95-6.03,11.37-13.17,17.08-18.96,8.55-8.68,24.69-15.1,30.71-25.36,5.22-8.9,2.81-21.54-6.89-28.84ZM526,322.9c3.14-1.88-11.2-5.17-12.53-5.41-17.06-3.05-32.68-1.31-48.75,2.91-44.29,11.62-39.68,34.61-51.4,60.52-6.87,15.18-17.57,32.37-31.7,45.11-4.77,4.3-11.25,7.94-15.87,11.86-1.29,1.09-3.65,2.16.02,3.04.96.23,6.11-3.02,6.83-3.55,17.9-13.21,48.57-46.75,58.37-63.06,5.55-9.25,9.06-25.77,18.36-32.59,2.37-1.74,38.9-19.02,41.37-19.39s3.95.59,5.23.53c1.15-.05.22-1.84,3.13-2.09,3.21-.28,10.56-.17,13.97.05,3.16.2,12.47,2.37,12.97,2.07ZM269.89,324.95c-10.9-3.35-21.66-4.75-33.72-4.07l29.05,4.63,4.67-.56ZM565.28,342.64c-16.67-6.78-54.11-20.82-73.05-14-4.42,1.59-17.31,9.15-22.59,11.58-3.91,1.8-15.02,6.23-17.34,8.82-1.92,2.15-3.71,10.66-5.62,14.33-3.81,7.33-8.31,14.43-12.69,21.59,2.94,1.84,10.82-7.43,12.3-8.67,11.52-9.67,29.01-22.38,44.38-30.54,17.29-9.19,27.98-14.11,50.65-8.08,15.21,4.05,29.58,12.85,43.35,18.02,4.28,1.61,10.1,1.99,14.95,1.79l-26.53-10.36c-2.95-.61-5.99-3.75-7.8-4.49ZM231.57,331.02c3.95-3.77-11.74.7-13.7,1.61-21.83,10.08-40.25,32.6-69.5,39.36l-24.14,5.34c2.06,2.04,3.25,1.11,5.79.88,41.38-3.74,61.32-24.8,89.26-41.59,2.3-1.38,11.87-5.19,12.29-5.6ZM268.37,337.16c-1.17-.73-17.77-2.21-20.75-2.1-21.66.83-29.83,14.17-44.4,22.49l-19.19,11.13,11.52-3.01c18.65-9.38,39.95-25.67,64.63-27.44,1.14-.08,12.9,1.87,8.18-1.07ZM548.47,347.7c-11.28-3.95-23.92-7.65-36.72-4.49-25.2,15.25-52.61,29.5-70.06,49.41l26.14-16.22c22.41-13.28,71.91-24.98,98.48-17.2,5.82,1.71,7.98-1.29,4.64-2.72-5.52-2.37-14.78-4.96-20.84-7.14-.85-.31-1.07-1.44-1.64-1.64ZM268.37,346.31c-26.6-2.01-45.15,14.05-64.54,23.81-7.04,3.55-16.02,6.1-21.34,10.76,5,0,11.62-1.6,15.89-3.19,18.61-6.92,34.81-18.5,51.68-25.74,6.27-2.69,13.2-2.53,18.31-5.65ZM332.76,373.77c2.94-8.62,1.36-20.27-9.17-26.45,1.36,4.61,7.83,11.09,7.73,15.72-.02.78-2.12.62-3.13.58v.99c1.03-.08,2.76-.16,3.09.67.89,2.22-2.07,7.18,1.48,8.5ZM286.77,361.55c-15.92-10.19-33.13-3.81-44.47,6.11,8.94.12,19.11-4.98,27.38-5.54,5.14-.35,11.32,1.49,17.09-.57ZM295.96,379.88c-5.06-10.09-14.71-11.72-29.49-9.08-20.17,3.6-48.9,19.41-68.82,25.75l-18.21,5.19c1.37,2.45,11.88-.86,14.59-1.49,14.49-3.37,29.33-8.35,42.53-12.52,17.04-5.39,27.54-11.64,47.71-10.58,3.56.19,8.17,2.02,11.68,2.73ZM179.42,371.75l-15.33,6.09c5.37-.91,12.48-2.83,15.33-6.09ZM122.68,377.85l-29.12,2.02c8.4.02,17.18,1.35,25.39.05,2.64-.42,4.47.97,3.73-2.07ZM672.11,392.36c-20.84,13.73-50.29-.67-72.09-6.13-28.56-7.14-56.55-8.72-86.28-3.28,2.56,3.91,8.83,1.09,13.05,1.01,33.5-.67,62.68,5.51,90.08,14.54,4.42,1.46,22.03,7.75,24.91,7.93,6.43.39,20.75-5.39,26.43-8,4.99-2.29,9.31-4.45,12.68-7.86l-8.78,1.79ZM289.82,400.23c2.64-10.83-2.71-16.86-20.36-14.2-1.06.16-1.2,1.49-2.37,1.87-10.32,3.43-20,7.71-30.92,10.31-.37,1.8,3.49,1.01,5.16.89,12.74-.94,28.25-4.4,41.17-1.8.42.08,5.23,3,7.31,2.93ZM174.82,393.12c-11.19,1.58-24.06,3.51-34.99,5.82-2.58.55-4.04-.44-3.34,2.31l20.29-2.3,18.03-5.83ZM633.35,413.45c-19.67-9.76-44.33-14.24-67.46-19.32-.62,2.23,1.48,2.4,3.85,3.03,8.69,2.32,19.65,3.8,28.68,6.21,2.52.67,5.82,1.59,8.88,2.43,8.64,2.37,16.85,6.04,26.05,7.65ZM546.71,402.27c-8.85-.82-22.66,0-32.2,0-13.06,0-43.13,12.73-52.16,19.32-1.82,1.33-7.24,5.18-6.1,7.15,27.26-13.67,59.24-24.24,94.29-24.44.56-1.03-3.2-1.97-3.83-2.02ZM288.29,434.83c-1.86-7.49,1.6-24.33-11.12-27.72-8.69-2.32-30.49.72-39.82,2.56-5.31,1.04-8.44,3.24-13.45,3.8.2,1.62,6.67,1.94,8.44,2.01,13.79.56,19.06-2.19,33.56,2.16,13.99,4.2,14.06,9.9,22.39,17.19ZM389.51,406.34c-2.39-1.9-3.3,1.44-3.8,2-1,1.11-6.05,6.63-5.38,7.14,2.27,1.76,3.36-1.34,3.96-1.91,1.2-1.12,6.33-6.36,5.22-7.24ZM662.49,411.44c-2.24-.04-21.96,2-18.39,5.07s16.9-1.69,18.39-5.07ZM875.65,464.33c1.59-.95-13.39-19.38-15.6-21.69-9.73-10.18-21.8-20.09-38.25-25.5-7.71-2.54-16.3-4.29-25-3.59-13.7,1.1-45.23,18.46-58.37,24.36-8.11,3.64-16.54,7.27-25.33,10.16-.27,1.98,4.8.89,6.19.54,13.36-3.35,27.35-11.51,42.18-14.75,13.21-2.89,38.8-4.54,51.64-.98,1.52.42,1.43,1.82,3.06,2.27,19.55,5.37,22.94,5.08,37.98,16.49,6.28,4.77,9.84,13.58,21.5,12.69ZM377.24,418.55c-1.2-.85-10.05,4.68-12.41,5.49-10.58,3.6-21.47,3.08-32.8,1.62-3.14,2.1,1.74,2.17,3.85,3.51,1.73,1.1,10.35,7.22,11.07,7.42,10.7,2.98,32.92-16.18,30.29-18.03ZM265.52,436.68c5.52,2.43,4.79-4.4-2.51-7.97-21.59-10.55-60.62,3.02-85.11,3.07-.36,1.77,3.48.96,5.34,1.01,19.13.51,39.44-.87,58.33-.04,4.95.22,14.31,3.01,15.18,2.98,1.9-.06,4.3-1.47,7.57-.95,1.14.18.94,1.77,1.2,1.89ZM249.2,443.99c-19.53-1.34-42.23,1-62.11,0l19.11,2.08c13.41.84,30.16-1.24,43.1-.12,2.73.24,2,1.82,3.35,2.04,3.78.62,8.73.78,12.65,1.08,4.02-2.01-14.37-4.96-16.1-5.08ZM226.96,457.21h-49.07c-1.09,4,5.14.89,8.43,1.01,8.25.29,17.27,1.91,26.06,1.02l14.58-2.02ZM820.44,496.89c-3.52-11.87-16.98-21.26-34.58-24.36-32.02-5.64-59.86,4.01-88.54,11.35-2.56.65-14.32,2.5-14.89,2.85-3.5,2.11,3.77,2.11,5.34,2.01,24.06-1.45,37.86-8.83,65.94-7.1,20.09,1.24,31.76,7.43,47.99,12.12,2.47.72,17.58,3.82,18.74,3.12ZM254.57,482.65h-21.47l12.96,2.08c3.19-.49,9.72,1.48,8.51-2.08Z"/>
    <path class="st3" d="M960,187.57v2.04c-17.68-5.45-33.28-13.15-51.11-18.49-56.06-16.81-104.79-18.91-164.18-24.36-30.15-2.77-53.8-12.37-84.97-15.87-59.33-6.65-125.62-6.93-161.07,30.92-30.6,32.68-11.88,62.62-18.81,96.39-3.84,18.7-42.37,12.76-61.95,13.84-16.58.92-35.5,5.13-52.36,5.95-25.94,1.27-45.32-13.32-70.55-16.02l.97-1.14c.74.29,13.62,1.23,16.87,2.04,10.1,2.5,21.15,8.13,30.66,10.69,22.05,5.94,49.97-2.34,72.88-3.55,20.13-1.07,57.27,5.28,60.55-13.75,6.11-35.42-12.71-65.61,21.76-98.51,6.2-5.91,14.5-9.86,19.64-15.97.5-.07,1.07.08,1.53,0,3.1-.53,8.44-1.67,7.67-4.07,1.46-.37,2.92-.51,4.6-1.02,3.57-1.07,8.06-3.35,10.73-4.07,1.36-.36,3.04-.62,4.6-1.02,40.87-10.43,109.56-6.27,150.69,3.29,44.04,10.24,71.99,9.97,116.43,15.34,51.62,6.25,101.71,18.05,145.4,37.33Z"/>
    <path class="st3" d="M0,269.99c6.11,7.83,9.77,16.33,17.16,23.72,15.22,15.22,42.71,26.95,70.85,24.2l14.74,2.43c-19.81,3.67-45.91.26-63.35-6.81-20.25-8.2-28.46-20.09-39.41-33.38v-10.18Z"/>
    <path class="st2" d="M79.76,580.35"/>
    <path class="st2" d="M53.69,585.42"/>
    <path class="st2" d="M81.28,584.4"/>
    <path class="st2" d="M145.44,578.47"/>
    <path class="st2" d="M171.75,580.33"/>
    <path class="st2" d="M159.48,585.42"/>
  </g>
</svg>